<?xml version="1.0" encoding="UTF-8"?>
<svg width="256px" height="256px" viewBox="0 0 256 256" version="1.1" xmlns="http://www.w3.org/2000/svg" xmlns:xlink="http://www.w3.org/1999/xlink">
    <title>1 iOS</title>
    <defs>
        <linearGradient x1="10.9999988%" y1="10.0000002%" x2="89.0000034%" y2="87.9999976%" id="linearGradient-1">
            <stop stop-color="#B1B2FF" offset="0%"></stop>
            <stop stop-color="#AAC4FF" offset="100%"></stop>
        </linearGradient>
        <rect id="path-2" x="0" y="0" width="256" height="256"></rect>
        <filter x="-46.1%" y="-58.9%" width="192.2%" height="217.9%" filterUnits="objectBoundingBox" id="filter-4">
            <feOffset dx="0" dy="0" in="SourceAlpha" result="shadowOffsetOuter1"></feOffset>
            <feGaussianBlur stdDeviation="21.5" in="shadowOffsetOuter1" result="shadowBlurOuter1"></feGaussianBlur>
            <feColorMatrix values="0 0 0 0 0   0 0 0 0 0   0 0 0 0 0  0 0 0 0.2 0" type="matrix" in="shadowBlurOuter1" result="shadowMatrixOuter1"></feColorMatrix>
            <feMerge>
                <feMergeNode in="shadowMatrixOuter1"></feMergeNode>
                <feMergeNode in="SourceGraphic"></feMergeNode>
            </feMerge>
        </filter>
    </defs>
    <g id="1-iOS" stroke="none" stroke-width="1" fill="none" fill-rule="evenodd">
        <mask id="mask-3" fill="white">
            <use xlink:href="#path-2"></use>
        </mask>
        <use id="Logo-(Background/Mask)" fill="url(#linearGradient-1)" xlink:href="#path-2"></use>
        <g id="Group" filter="url(#filter-4)" mask="url(#mask-3)" fill="#FFFFFF">
            <g transform="translate(38.000000, 58.000000)" id="Combined-Shape">
                <path d="M145.310679,0 C150.109659,-8.81558184e-16 154,3.89034133 154,8.68932056 L154,31 L42.879,31 L42.879672,28.4599883 C44.6060478,28.4145573 46.1847731,28.0624675 47.6158477,27.4037189 L47.1728961,25.2741435 C45.7418214,25.7965993 44.3107467,26.0862216 42.879672,26.1430102 L42.879672,12.1218858 C44.1290229,12.1900322 45.4521991,12.4682967 46.8492006,12.9566794 L47.5477013,10.7589575 C46.0711957,10.1683553 44.5151859,9.85601756 42.879672,9.82194436 L42.879672,6.75535578 L40.8863895,6.75535578 L40.8863895,9.92416398 C38.5239805,10.2876115 36.6783485,11.29845 35.3494934,12.9566794 C34.0206384,14.6149087 33.3562108,16.6763377 33.3562108,19.1409663 C33.3562108,21.6169527 34.0149595,23.6812211 35.3324568,25.3337716 C36.6499541,26.9863221 38.501265,27.9886423 40.8863895,28.3407321 L40.886,31 L24,31 L24,8.68932056 C24,3.89034133 27.8903413,-8.94798656e-16 32.6893206,0 L145.310679,0 Z M40.8863895,12.2922518 L40.8863895,25.9726442 C39.4098838,25.5751235 38.2485554,24.7460088 37.4024041,23.4853001 C36.5562528,22.2245915 36.1331772,20.7764802 36.1331772,19.1409663 C36.1331772,17.3237286 36.5448951,15.8131498 37.3683309,14.6092299 C38.1917667,13.4053099 39.3644529,12.6329839 40.8863895,12.2922518 Z"></path>
                <path d="M161.621359,30.5988024 C171.219317,30.5988024 179,38.3794849 179,47.9774432 L179,122.621359 C179,132.219317 171.219317,140 161.621359,140 L17.3786408,140 C7.7806825,140 4.72812457e-15,132.219317 0,122.621359 L0,47.9774432 C-4.72812457e-15,38.3794849 7.7806825,30.5988024 17.3786408,30.5988024 L161.621359,30.5988024 Z M154.727922,99.2720779 C147.698485,92.2426407 136.301515,92.2426407 129.272078,99.2720779 C122.310363,106.233793 122.243293,117.479291 129.070868,124.523547 L141.5,112.094408 L154.427108,125.021923 C154.528236,124.925329 154.628516,124.827328 154.727922,124.727922 C161.757359,117.698485 161.757359,106.301515 154.727922,99.2720779 Z" fill-opacity="0.8"></path>
            </g>
        </g>
    </g>
</svg>
